<?xml version="1.0" encoding="utf-8"?>
<svg xmlns="http://www.w3.org/2000/svg"
     xmlns:xlink="http://www.w3.org/1999/xlink"
     x="0" y="0" width="32" height="32" viewBox="0 0 32 32">
  <style>
    g {
      fill: none;
      stroke: #fff;
      stroke-width: 1.0325;
    }
  </style>
	<g>
	  <path d="M 1.5,20.25   v 6.75   a 3.5,3.5 0 0,0 3.5,3.5   h 6.75   v -.1   a 3.1,3.1 0 1,1 5,0   v .1   h 4.25   a 3.5,3.5 0 0,0 3.5,-3.5   v -6   h .1   a 3.75,4 0 1,0 0,-6.5   h-.1
               v -3.5   a 3.5,3.5 0 0,0 -3.5,-3.5   h -3.5   v -.1   a 4,3.75 0 1,0 -6.5,0   v .1   h -6   a 3.5,3.5 0 0,0 -3.5,3.5   v 4.25   h .1   a 3.1,3.1 0 1,1 0,5   h-.1   Z"/>
	</g>
</svg>