<?xml version="1.0" encoding="utf-8"?>
<svg xmlns="http://www.w3.org/2000/svg"
     xmlns:xlink="http://www.w3.org/1999/xlink"
     x="0" y="0" width="32" height="32" viewBox="0 0 32 32">
  <style>
    g {
      fill: none;
      stroke: #fff;
      stroke-width: 1.0325;
    }
  </style>
	<g>
    <circle cx="16" cy="16" r="4.53"/>
    <!-- circle cx="16" cy="16" r="11.75"  stroke-width=".25"/ -->
    <!-- circle cx="16" cy="16" r="13.5"  stroke-width=".25"/ -->
    <path d="M 16,16   m 13.265,2.5   
             l -1.955,0.686   a 11.75,11.75 0 0,1 -1.06,2.558   l 0.896,1.869  a 13.5,13.5 0 0,1 -3.533,3.533   
             l -1.869,-0.896      a 11.75,11.75 0 0,1 -2.558,1.06   l -0.686,1.955   a 13.5,13.5 0 0,1 -5,0
             l -0.686,-1.955   a 11.75,11.75 0 0,1 -2.558,-1.06   l -1.869,0.896  a 13.5,13.5 0 0,1 -3.533,-3.533
             l 0.896,-1.869      a 11.75,11.75 0 0,1 -1.06,-2.558   l -1.955,-0.686   a 13.5,13.5 0 0,1 0,-5
             l 1.955,-0.686   a 11.75,11.75 0 0,1 1.06,-2.558   l -0.896,-1.869  a 13.5,13.5 0 0,1 3.533,-3.533   
             l 1.869,0.896      a 11.75,11.75 0 0,1 2.558,-1.06   l 0.686,-1.955   a 13.5,13.5 0 0,1 5,0
             l 0.686,1.955   a 11.75,11.75 0 0,1 2.558,1.06   l 1.869,-0.896  a 13.5,13.5 0 0,1 3.533,3.533
             l -0.896,1.869      a 11.75,11.75 0 0,1 1.06,2.558   l 1.955,0.686   a 13.5,13.5 0 0,1 0,5   Z"/>
	</g>
</svg>