<!-- This Source Code Form is subject to the terms of the Mozilla Public
   - License, v. 2.0. If a copy of the MPL was not distributed with this
   - file, You can obtain one at http://mozilla.org/MPL/2.0/. -->
<svg height="32" width="32" xmlns="http://www.w3.org/2000/svg" viewBox="0 0 32 32" fill="none" stroke-width="1" stroke="#fff">
	  <path d="M 2.5,20.5   v 6   a 3,3 0 0,0 3,3   h 6.75   v -.1   a 3.1,3.1 0 1,1 5,0   v .1   h 4.25   a 3,3 0 0,0 3,-3   v -6.25   h .1   a 3.7,3.7 0 1,0 0,-6   h-.1
               v -3.75   a 3,3 0 0,0 -3,-3   h -3.75   v -.1   a 3.7,3.7 0 1,0 -6,0   v .1   h -6.25   a 3,3 0 0,0 -3,3   v 4.25   h .1   a 3.1,3.1 0 1,1 0,5   h-.1   v.75  Z"/>
</svg>
