<!-- This Source Code Form is subject to the terms of the Mozilla Public
   - License, v. 2.0. If a copy of the MPL was not distributed with this
   - file, You can obtain one at http://mozilla.org/MPL/2.0/. -->
<svg height="16" width="16" xmlns="http://www.w3.org/2000/svg" viewBox="0 0 16 16" fill="none" stroke="#fff" stroke-width=".5">
<path d="M14.6,6.1   l-1.1,-1.1   l0,0  c0.3-0.2,0.3-1 0-1.2  l-0.4-0.4   c-0.3-0.3-0.8-0.3-1.1,0   l0,0
	l-1.5,-1.4   c-0.2-0.3-.8-.3-1,0   
  l-1.2,1.2  
  c-.2,.1 -.3,.7 0,.9
  l1.6,1.6   
  l-2.1,2.1   
  l-2.2,-2.1 	 l1.5-1.5   
  c.3,-.4 .4,-.9 0.1-1.2   l-1-1   
  c-.4,-.3 -.9,-.3 -1.2,0
  l-4.1,4.1
  c-.3,.4 -.4,.9 -.1,1.2
	   l1,1   c0.3,0.3,0.9,0.3,1.2,0   l1.4-1.4   l2,2.1   l-3.4,3.3   c-0.3,0.3-0.3,0.8,0,1.1   l0.3,0.3   c0.3,0.3,0.8,0.3,1.1,0
	l3.3-3.4   l3.3,3.4   c0.3,0.3,.9,.3 1.2,0   l0.3-0.3   c0.3-0.3,0.3-0.8,0-1.1   
  l-3.5,-3.3   l2-2.1   l1.4,1.4
	   c0.1,0.1,2.3,1.1,2.7,0.7   
  c.4,-.4 -.3,-2.7 -.5,-2.9  z"/>
</svg>
