<?xml version="1.0" encoding="utf-8"?>
<svg xmlns="http://www.w3.org/2000/svg"
     xmlns:xlink="http://www.w3.org/1999/xlink"
     x="0" y="0" width="16" height="16" viewBox="0 0 16 16">
  <style>
    g {
      fill: #9C9C9C;
      stroke: none;
    }
    #large:target + g {
      fill: #E5C564;
    }
  </style>
  <g id="large"/>
  <g>
    <circle cx="12.87" cy="3.434" r=".75" fill="none"/>
    <path transform="translate(0 .02)" d="m0.63 12.671 1.146 1.125 1.736-1.733-1.142-1.111zm11.24-11.757c-1.934 0-3.5 1.566-3.5 3.5 0 0.792 0.267 1.521 0.71 2.106l-0.02-0.02-7.815 7.807 0.76 0.739 7.784-7.818-0.02-0.02c0.585 0.44 1.312 0.705 2.101 0.705 1.934 0 3.5-1.567 3.5-3.5s-1.566-3.499-3.5-3.499zm1 3.25c-0.414 0-0.75-0.336-0.75-0.75s0.336-0.75 0.75-0.75 0.75 0.336 0.75 0.75-0.336 0.75-0.75 0.75z"/>
  </g>
</svg>
