<?xml version="1.0" encoding="utf-8"?>
<svg xmlns="http://www.w3.org/2000/svg"
     xmlns:xlink="http://www.w3.org/1999/xlink"
     x="0"
     y="0"
     width="32"
     height="32"
     viewBox="0 0 32 32">
  <style>
    use:not(:target) {
      display: none;
    }
    use {
      fill: none;
      stroke: #fff;
      stroke-width: 1;
    }
    use[id="extensionGeneric"] {
      fill: #4B89B9;
      stroke: #4B89B9;
    }
    use[id="themeGeneric"] {
      fill: #BD6A9B;
      stroke: #BD6A9B;
    }
    use[id="pluginGeneric"] {
      fill: #4FB5AF;
      stroke: #4FB5AF;
    }
    use[id="dictionaryGeneric"] {
      fill: #B7A2D5;
      stroke: #B7A2D5;
    }
    use[id="languageGeneric"] {
      fill: #B7A2D5;
      stroke: #B7A2D5;
    }
    use[id="experimentGeneric"] {
      fill: #D8BC5D;
      stroke: #D8BC5D;
    }
  </style>
  <defs style="display: none;">
	<g id="search-shape">
	  <circle  cx="14"  cy="13"  r="9.5"/>
	  <line  x1="21"  y1="20"  x2="27.5"  y2="26.5"/>
	</g>
	<g id="discover-shape">
	  <path  d="M 16.5,18.5   v 11   m -4.5,-4.5   l 4.5,4.5   l 4.5,-4.5"/>
	  <path  d="M 5.5,16.5   h 20.5   a 4.5,4.5 0 0,0 0,-9   h -.5   a 4.8,4.8 0 0,0 -7,-3   a 5.8,5.8 0 0,0 -11,3   h -1   a 4.5,4.5 0 0,0 0,9"/>
	</g>
	<g id="extensions-shape">
	  <path d="M 2.5,20.5   v 6   a 3,3 0 0,0 3,3   h 6.75   v -.1   a 3.1,3.1 0 1,1 5,0   v .1   h 4.25   a 3,3 0 0,0 3,-3   v -6.25   h .1   a 3.7,3.7 0 1,0 0,-6   h-.1
             v -3.75   a 3,3 0 0,0 -3,-3   h -3.75   v -.1   a 3.7,3.7 0 1,0 -6,0   v .1   h -6.25   a 3,3 0 0,0 -3,3   v 4.25   h .1   a 3.1,3.1 0 1,1 0,5   h-.1   v.75  Z"/>
	</g>
	<g id="userscripts-shape">
	  <path d="M 5,13   l 11,-12   c 4,-2 6.5,3.5 5,5   l -10.5,10.5   c 0.5,-1.5 -2,-6.5 -5.5,-3.5   c -.5,.75 -1,1.5 0.5,3.5   c1,1.5 3,4 4,5   l 5,5
                      c 1,1 2,3 1,4   c -2,2 -6.5,0 -6.5,-2.5   c 0,-1.5 .5,-1.5 1,-2   l 2,-2
             M 15.5,30.5   l 9,-10   c 1.5,-1.5 1,-3 -1,-5   l -6,-6"/>
	</g>
	<g id="userstyle-shape">
	  <rect x="1.5" y="1.5" width="29" height="29"/>
	  <path d="M 21,11.5   c 0,-2 -1.5,-4 -5.5,-4   c -4,0 -5.5,2 -5.5,4   c 0,2 2,3.5 5.5,4   c 3.5,.5 6,1 6,4   c 0,2 -1,4.5 -6,4.5   c -4,0 -5.5,-2 -6,-5"  stroke-width="1.25"/>
	</g>
	<g id="themes-shape">
	  <path d="M 2,30.5   l 9,-9   l -5.5,-15   l 4,-4   l 1.5,1.5" fill="none"/>
	  <path d="M 11,4   l 2,-2   a 2.121,2.121 0 0,1 3,0   l 14,14   a 2.121,2.121 0 0,1 0,3   l -3.5,3.5   a 2.121,2.121 0 0,1 -3,0   l -14,-14   a 2.121,2.121 0 0,1 0,-3   l 3,-3   "/>
	</g>
	<g id="plugins-shape">
    <path d="M 2.5,29.5   l 5.5,-5.5
             M 12.75,5.75   l 13.5,13.5   l -4.75,4.75   a 9.546,9.546  0 0,1 -13.5,-13.5   l 4.75,-4.75   Z
             M 23,1.5   l -7,7   M 30.5,9   l -7,7"/>
	</g>
	<g id="dictionaries-shape">
	  <path d="M 1.5,27.5   v -25   a 2,2 0 0,1 2,-2   h 22   a 3,3 0 0,1 3,3   v 21   a 3,3 0 0,1 -3,3   h -24   Z"/>
	  <path d="M 1.5,26.5   v 1   c 0,1.5 2,4 3,4   h 24   a 3,3 0 0,0 3,-3   v -22.5   c -.5,1.5 -3,-3 -3,-3.5 "   fill="none"/>
	  <path d="M 9,20   l 3,-10.5   l 3,10.5   m -5,-3.5  h 3.5"   fill="none"/>
	  <path d="M 18.5,14   a 1.5,1.5 0 0,1 1.5,-1.5   c 1,0 2.5,0 2.5,3   v 2   c 0,1 0,2 1.5,2
	           m -1.5,-2  c -.5,1 -1.5,2 -2.5,2   c -1,0 -2,-.5 -2,-1.5   c 0,-2.5 3.5,-2.25 4.5,-3.5 "   fill="none"/>
	</g>
	<g id="dictionary-shape">
	  <path d="M 1.5,27.5   v -25   a 2,2 0 0,1 2,-2   h 22   a 3,3 0 0,1 3,3   v 21   a 3,3 0 0,1 -3,3   h -24   Z"/>
	  <path d="M 1.5,26.5   v 1   c 0,1.5 2,4 3,4   h 24   a 3,3 0 0,0 3,-3   v -22.5   c -.5,1.5 -3,-3 -3,-3.5 "   fill="none"/>
	  <path d="M 9,20   l 3,-10.5   l 3,10.5   m -5,-3.5  h 3.5"   fill="none"  stroke="#fff"/>
	  <path d="M 18.5,14   a 1.5,1.5 0 0,1 1.5,-1.5   c 1,0 2.5,0 2.5,3   v 2   c 0,1 0,2 1.5,2
	           m -1.5,-2  c -.5,1 -1.5,2 -2.5,2   c -1,0 -2,-.5 -2,-1.5   c 0,-2.5 3.5,-2.25 4.5,-3.5 "   fill="none"  stroke="#fff"/>
	</g>
	<g id="languages-shape">
	  <path d="M 22.8,3   c -3,1 -7.3,1 -7.3,4   c 0,2 1,1.5 1,3.5   l 0,3.5   c 0,1 1,3.5 2,3.5   c 1,0  3,-2 5,-2   l 3,0   c 2.5,0 2.17,-0.5 3.67,-3   a 14,14 0 0,0 -7.37,-9.5   Z" stroke-width="0"/>
	  <circle cx="16.5" cy="15.5" r="14"  fill="none"/>
	  <path d="M 22.8,3   c -3,1 -7.3,1 -7.3,4   c 0,2 1,1.5 1,3.5   l 0,3.5   c 0,1 1,3.5 2,3.5   c 1,0  3,-2 5,-2   l 3,0   c 2.5,0 2.17,-0.5 3.67,-3"  fill="none"/>
	  <path d="M 14.5,19.5   c 2,0 3,0 3,2   c 0,1.5 -.5,2 -2,2   c -1.5,0 -1.5,.5 -3,2   c -1,1 -2,0 -2,-1   c 0,-2 -1.5,-2.5 0,-4   c 2.75,-2.75 3,-1 4,-1   Z"/>
	</g>
	<g id="services-shape">
	  <path  d="M 5.5,19.5   h 4   v 2   c 0,1 -.5,3 -2.5,5   c 5,0 8.5,-3 10.5,-7   h 8   a 5,5 0 0,0 0,-10   h -1   a 4.8,4.8 0 0,0 -7,-3   a 5.8,5.8 0 0,0 -11,3   a 5,5 0 0,0 0,10   Z"/>
    <rect  x="10.5"  y="13.5"  width="1"  height="1"/>
    <rect  x="15.5"  y="13.5"  width="1"  height="1"/>
    <rect  x="20.5"  y="13.5"  width="1"  height="1"/>
	</g>
	<g id="experiments-shape">
	  <path  d="M 8.64,18.5   l -5.14,8   c -1.35,2.1, 1,3, 1,3   h 23   c 1,0 2.35,-.9 1,-3   l -5.14,-8   h -14.72"   stroke-width="0"/>
	  <path  d="M 11,3.5   h 1.5   v 9   l -9,14   c -1.35,2.1, 1,3, 1,3   h 23   c 1,0 2.35,-.9 1,-3   l -9,-14   v -9   h 1.5
              M 8.5,18.5   h 15" fill="none"/>
	</g>
	<g id="available-shape">
	  <circle cx="16.5" cy="15.5" r="14"/>
	  <path  d="M 16.5,9.5   v 12   m -6,-6   l 6,6   l 6,-6"/>
	</g>
	<g id="recent-shape">
	  <circle cx="16.5" cy="15.5" r="14"/>
	  <path  d="M 16.5,21.5   v -12   m -6,6   l 6,-6   l 6,6"/>
	</g>
	<g id="searchengines-shape">
	  <circle cx="14" cy="13" r="9.5"/>
	  <line  x1="21"  y1="20"  x2="27.5"  y2="26.5"/>
	</g>
  </defs>
  <use id="search"         xlink:href="#search-shape"/>
  <use id="discover"       xlink:href="#discover-shape"/>
  <use id="extensions"     xlink:href="#extensions-shape"/>
  <use id="userscripts"    xlink:href="#userscripts-shape"/>
  <use id="userstyle"      xlink:href="#userstyle-shape"/>
  <use id="themes"         xlink:href="#themes-shape"/>
  <use id="plugins"        xlink:href="#plugins-shape"/>
  <use id="dictionaries"   xlink:href="#dictionaries-shape"/>
  <use id="languages"      xlink:href="#languages-shape"/>
  <use id="services"       xlink:href="#services-shape"/>
  <use id="experiments"    xlink:href="#experiments-shape"/>
  <use id="available"      xlink:href="#available-shape"/>
  <use id="recent"         xlink:href="#recent-shape"/>
  <use id="searchengines"  xlink:href="#searchengines-shape"/>

  <use id="extensionGeneric"   xlink:href="#extensions-shape"/>
  <use id="themeGeneric"       xlink:href="#themes-shape"/>
  <use id="pluginGeneric"      xlink:href="#plugins-shape"/>
  <use id="dictionaryGeneric"  xlink:href="#dictionary-shape"/>
  <use id="languageGeneric"    xlink:href="#languages-shape"/>
  <use id="experimentGeneric"  xlink:href="#experiments-shape"/>

  </svg>