<?xml version="1.0" encoding="utf-8"?>
<svg xmlns="http://www.w3.org/2000/svg"
     xmlns:xlink="http://www.w3.org/1999/xlink"
     x="0" y="0" width="18" height="18" viewBox="0 0 18 18">
  <style>
    #active:target + #stripe {
      display: none;
    }
  </style>
  <path d="m5.484 4.9912v10.045l4.0165-3.5157 4.0165 3.5157v-10.045a1.5062 1.5067 0 0 0-1.5062-1.5067h-5.0206a1.5062 1.5067 0 0 0-1.5062 1.5067z" fill="#75c8fe"/>
  <path d="m5.484 4.9912v10.045l4.0165-3.5157 4.0165 3.5157v-10.045a1.5062 1.5067 0 0 0-1.5062-1.5067h-5.0206a1.5062 1.5067 0 0 0-1.5062 1.5067z" fill="none" stroke="#359bde"/>
  <g id="active"/>
  <g  id="stripe" transform="matrix(1.0041 0 0 1.0045 -.038688 .97326)" stroke-width=".99571">
    <path d="m6.5 3v9l3-2.5 3 2.5v-9" fill="none" opacity=".37" stroke="#fff" stroke-width=".99571"/>
  </g>
</svg>