<?xml version="1.0" encoding="utf-8"?>
<svg xmlns="http://www.w3.org/2000/svg"
     xmlns:xlink="http://www.w3.org/1999/xlink"
     x="0"
     y="0"
     width="16"
     height="16"
     viewBox="0 0 16 16">
  <style>
    .t:not(:target){
      display: none;
    }
    path {
      stroke-width: 1;
      stroke: #fff;
      fill: none;
    }
  </style>
  <path id="organizeButton" class="t" 
         d="M 1.5,7.5   h 4   v .5   a 1.5,1.5 0 0,0 1.5,1.5   h 2   a 1.5,1.5 0 0,0 1.5,-1.5   v -.5   h 4
                        v 5.5   a 1.5,1.5 0 0,1 -1.5,1.5   h -10   a 1.5,1.5 0 0,1 -1.5,-1.5   v -5.5   z
                        v -.5   l 2,-5.5   h 9   l 2,5.5   v .5
                        m -10.5,-2   h 8   m -7,-2   h 6"/>
  <path id="viewMenu" class="t" 
         d="M 2,4.5   h 2   m -2,-1   h 2   m 1,0   h 9   m -12,5
                      h 2   m -2,-1   h 2   m 1,0   h 9   m -12,5
                      h 2   m -2,-1   h 2   m 1,0   h 9"/>
  <path id="maintenanceButton" class="t"
         d="M 3.5,6.5   c .8,-5.4 9.2,-5.4 10,0   m 1.3,-3.2   l -1.1,3.2   l -3.2,-1.1
            M 13.5,9.5   c -.8,5.4 -9.2,5.4 -10,0   m -1.3,3.2   l 1.1,-3.2   l 3.2,1.1"/>
  <path id="clearDownloadsButton" class="t"
         d="M 3.5,4.5   h 9   v 9  a 1,1 0 0,1 -1,1  h -7   a 1,1 0 0,1 -1,-1   v -9   z   m 3,.5  v 9   m 3,-9  v 9
            m -8,-11.5   h 13   m -9,-.5   a 1.5,1.5 0 0,1 1.5,-1.5   h 2   a 1.5,1.5 0 0,1 1.5,1.5"/>
</svg>