<?xml version="1.0" encoding="utf-8"?>
<svg xmlns="http://www.w3.org/2000/svg"
     xmlns:xlink="http://www.w3.org/1999/xlink"
     x="0"
     y="0"
     width="16"
     height="16"
     viewBox="0 0 16 16">
  <style>
    .t:not(:target){
      display: none;
    }
    use:not([class]) {
      stroke-width: 1;
      stroke: #fff;
      fill: none;
    }
    .inside {
      stroke-width: 0;
      stroke: none;
      fill: #fff;
    }
    .hiLiteOutline {
      stroke-width: 1;
      stroke: HighlightText;
      fill: none;
      opacity: .7;
    }
  </style>
  <defs>

    <path id="default-shape"
          d="M2,1.5h2m1.3,0h2m1.4,0h2m1.3,0h2m.5,.5v2m0,1.3v2m0,1.4v2m0,1.3v2m-.5,.5h-2m-1.3,0h-2m-1.4,0h-2m-1.3,0h-2m-.5-.5v-2m0-1.3v-2m0-1.4v-2m0-1.3v-2m.5-.5z"/>

    <g id="tag-shape">
      <path d="M 3,2.5   h 4   c .5,0 .5,0 1,.5   l 4.5,4.5   c 1.5,1.5 1.5,1.5 0,3   l -2,2   
                         c -1.5,1.5 -1.5,1.5 -3,0   l -4.5,-4.5   c -.5,-.5 -.5,-.5 -.5,-1   v -4   a .5,.5 0 0,1 .5,-.5   z"/>
      <circle cx="5.6" cy="5.6" r=".5"/>
    </g>

  </defs>

  <g id="defaultFavicon" class="t">
    <use xlink:href="#default-shape"/>
  </g>
  <g id="defaultFaviconHL" class="t">
    <use xlink:href="#default-shape" class="hiLiteOutline"/>
  </g>
  <g id="tag" class="t">
    <use xlink:href="#tag-shape"/>
  </g>
  <g id="tagHL" class="t">
    <use xlink:href="#tag-shape" class="hiLiteOutline"/>
  </g>
</svg>