<?xml version="1.0" encoding="UTF-8"?>
<svg width="16" height="16" version="1.1" viewBox="0 0 16 16" xmlns="http://www.w3.org/2000/svg">
  <path fill="#9C9C9C" d="m8 1-5.1992 0.90039c-0.4 0-0.80078 0.50039-0.80078 0.90039 0 1.2-3.906e-4 3.2988 0.099609 4.2988 0.3 2.7 0.80039 3.9996 1.9004 5.5996 1.6 2 4 2.3008 4 2.3008s2.4-0.30039 4-2.4004c1.2-1.5 1.7004-2.8996 1.9004-5.5996 0.1-0.9 0.099609-2.9992 0.099609-4.1992 0-0.5-0.40078-0.9-0.80078-1zm0 1 5 0.80078c0 2 3.91e-4 3.4996-0.09961 4.0996-0.3 2.7-0.80117 3.7996-1.7012 5.0996-1.1 1.5-2.6992 1.9-3.1992 2-0.4-0.1-2.0992-0.5-3.1992-2-1-1.3-1.5012-2.3996-1.7012-5.0996-0.1-0.6-0.099609-2.0996-0.099609-4.0996zm0 1-4 0.69922c0 1.5-3.906e-4 2.6012 0.099609 3.2012 0.2 2.5 0.6 3.3996 1.5 4.5996 0.8 1 1.9004 1.4 2.4004 1.5z"/>
</svg>
