<?xml version="1.0" encoding="utf-8"?>
<svg xmlns="http://www.w3.org/2000/svg"
     xmlns:xlink="http://www.w3.org/1999/xlink"
     x="0" y="0" width="18" height="18" viewBox="0 0 18 18">
  <style>
    g {
      fill: none;
      stroke: #fff;
      stroke-width: 1.0325;
    }
    #darktext:target + g {
      stroke: #000;
      stroke-width: 1;
    }
  </style>
  <g id="darktext"/>
	<g>
	  <path d="M 2.5,3.9   v 10.2   a 1.4,1.4 0 0,0 1.4,1.4   h 10.2   a 1.4,1.4 0 0,0 1.4,-1.4   v -8.2
             a 1.4,1.4 0 0,0 -1.4,-1.4   h -5.6
             v -.6   a 1.4,1.4 0 0,0 -1.4,-1.4   h -3.2   a 1.4,1.4 0 0,0 -1.4,1.4   Z
             M 2.5,9.1   a 2.6,2.6 0 0,1 2.6,-2.6   h 7.8   a2.6,2.6 0 0,1  2.6,2.6"/>
	</g>
</svg>