<?xml version="1.0" encoding="utf-8"?>
<svg xmlns="http://www.w3.org/2000/svg"
     xmlns:xlink="http://www.w3.org/1999/xlink"
     x="0" y="0" width="18" height="18" viewBox="0 0 18 18">
  <style>
    g {
      fill: none;
      stroke: #fff;
      stroke-width: 1.0325;
    }
    #darktext:target + g {
      stroke: #000;
      stroke-width: 1;
    }
  </style>
  <g id="darktext"/>
	<g>
    <circle cx="9" cy="9" r="2.5"/>
    <path d="M 9,9   m 6.388,1.204
             l -1.094,0.287   a 5.5,5.5 0 0,1 -0.496,1.198   l 0.570,0.977   a 6.5,6.5 0 0,1 -1.702,1.702
             l -0.977,-0.570   a 5.5,5.5 0 0,1 -1.198,0.496   l -0.287,1.094   a 6.5,6.5 0 0,1 -2.408,0
             l -0.287,-1.094   a 5.5,5.5 0 0,1 -1.198,-0.496   l -0.977,0.570   a 6.5,6.5 0 0,1 -1.702,-1.702
             l 0.570,-0.977   a 5.5,5.5 0 0,1 -0.496,-1.198   l -1.094,-0.287   a 6.5,6.5 0 0,1 0,-2.408
             l 1.094,-0.287   a 5.5,5.5 0 0,1 0.496,-1.198   l -0.570,-0.977   a 6.5,6.5 0 0,1 1.702,-1.702
             l 0.977,0.570   a 5.5,5.5 0 0,1 1.198,-0.496   l 0.287,-1.094   a 6.5,6.5 0 0,1 2.408,0
             l 0.287,1.094   a 5.5,5.5 0 0,1 1.198,0.496   l 0.977,-0.570   a 6.5,6.5 0 0,1 1.702,1.702
             l -0.570,0.977   a 5.5,5.5 0 0,1 0.496,1.198   l 1.094,0.287   a 6.5,6.5 0 0,1 0,2.408
             Z"/>
	</g>
</svg>