<?xml version="1.0" encoding="utf-8"?>
<svg xmlns="http://www.w3.org/2000/svg"
     xmlns:xlink="http://www.w3.org/1999/xlink"
     x="0" y="0" width="18" height="18" viewBox="0 0 18 18">
  <style>
    g {
      fill: none;
      stroke: #fff;
      stroke-width: 1.0325;
    }
    #darktext:target + g {
      stroke: #000;
      stroke-width: 1;
    }
  </style>
  <g id="darktext"/>
	<g>
    <path d="M 7.5,13.5   h -3   a 1,1 0 0,1 -1,-1   v -8   a 1,1 0 0,1 1,-1   h 1   m 5,0   h 1   a 1,1 0 0,1 1,1   v 3
       M 6,2.5   h 4   a .5,.5 0 0,1 .5,.5   v 2   a .5,.5 0 0,1 -.5,.5   h -4   a .5,.5 0 0,1 -.5,-.5   v -2   a .5,.5 0 0,1 .5,-.5   z
           M 11.8,6.5   h -4.3   v 9   h 7   v -6.3   l -2.7,-2.7   z   m -0.3,0   v 3   h 3"/>
  </g>
</svg>