<?xml version="1.0" encoding="utf-8"?>
<svg xmlns="http://www.w3.org/2000/svg"
     xmlns:xlink="http://www.w3.org/1999/xlink"
     x="0"
     y="0"
     width="32"
     height="32"
     viewBox="0 0 32 32">
  <style>
    use:not(:target) {
      display: none;
    }
    use {
      fill: none;
      stroke: #fff;
      stroke-width: 1;
    }
    use[id$="-red"] {
      fill: none;
      stroke: #F00;
    }
    use[id="security"] {
      fill: none;
      stroke: #fff;
    }
  </style>
  <defs style="display: none;">
	<g id="http-shape">
	  <path d="M 22.8,3   c -3,1 -7.3,1 -7.3,4   c 0,2 1,1.5 1,3.5   l 0,3.5   c 0,1 1,3.5 2,3.5   c 1,0  3,-2 5,-2   l 3,0   c 2.5,0 2.17,-0.5 3.67,-3   a 14,14 0 0,0 -7.37,-9.5   Z" stroke-width="0"/>
	  <circle cx="16.5" cy="15.5" r="14"  fill="none"/>
	  <path d="M 22.8,3   c -3,1 -7.3,1 -7.3,4   c 0,2 1,1.5 1,3.5   l 0,3.5   c 0,1 1,3.5 2,3.5   c 1,0  3,-2 5,-2   l 3,0   c 2.5,0 2.17,-0.5 3.67,-3"  fill="none"/>
	  <path d="M 14.5,19.5   c 2,0 3,0 3,2   c 0,1.5 -.5,2 -2,2   c -1.5,0 -1.5,.5 -3,2   c -1,1 -2,0 -2,-1   c 0,-2 -1.5,-2.5 0,-4   c 2.75,-2.75 3,-1 4,-1   Z"/>
	</g>
	<g id="sockets-shape">
    <rect x="3.5" y="3.5" width="25" height="25" rx="3.5" ry="3.5"/>
    <path d="M 11.5,10   v 7   m 9,-6.66   v 6.33   m -3,6.83   v -1.4   a 1.5,1.8 0 0,0 -3,0   v 1.4   h 3   v -1"/>
	</g>
	<g id="dns-shape-TRIAL">
    <path d="M 6,4.5   h 20   a 2.5,2.5 0 0,1 2.5,2.5   v 8   a 2.5,2.5 0 0,1 -2.5,2.5   h -8.33   l -8,8   l 2,-8   h -5.67   a 2.5,2.5 0 0,1 -2.5,-2.5   v -8   a 2.5,2.5 0 0,1 2.5,-2.5   z"/>
    <path d="M 6,4.5   m 3.5,6.75   h 1.5   m 4.5,0   h 1.5   m 4.5,0   h 1.5"   stroke-width="1.5"/>
	</g>
	<g id="dns-shape">
	  <path  d="M 5.5,19.5   h 4   v 2   c 0,1 -.5,3 -2.5,5   c 5,0 8.5,-3 10.5,-7   h 8   a 5,5 0 0,0 0,-10   h -1   a 4.8,4.8 0 0,0 -7,-3   a 5.8,5.8 0 0,0 -11,3   a 5,5 0 0,0 0,10   Z"/>
    <rect  x="10.5"  y="13.5"  width="1"  height="1"/>
    <rect  x="15.5"  y="13.5"  width="1"  height="1"/>
    <rect  x="20.5"  y="13.5"  width="1"  height="1"/>
	</g>
	<g id="websockets-shape">
	  <circle cx="16" cy="16" r="13.5"/>
	  <circle cx="16" cy="16" r=".75"/>
	  <path d="M 16,16   m 0.25,6.495   a 5.3,6.5 0 0,0 5.379,-3.245   l 2.5,2   m -2.5,-2   m -11.106,0.25   a 7.5,6.5 0 0,1 0,-7   m 11.106,0.25   a5.3,6.5 0 0,0 -5.379,-3.245   l .8,-3.3"/>
	</g>
	<g id="dnslookup-shape">
    <circle  cx="14"  cy="13"  r="9.5"/>
	  <line  x1="21"  y1="20"  x2="27.5"  y2="26.5"/>
  </g>
	<g id="logging-shape">
	  <path  d="M 5.5,3.5   v 24   h 20   v -17   l -7,-7   Z   m 12,.5   v 7.5   h 7.5"/>
	  <path  d="M 9.0,15.5   h 13   m -13,4   h 13   m -13,4   h 8"/>
	</g>
  </defs>
  <use id="http"  xlink:href="#http-shape"/>
  <use id="sockets"   xlink:href="#sockets-shape"/>
  <use id="dns"  xlink:href="#dns-shape"/>
  <use id="websockets"  xlink:href="#websockets-shape"/>
  <use id="dnslookup"  xlink:href="#dnslookup-shape"/>
  <use id="logging"  xlink:href="#logging-shape"/>
</svg>